<svg width="53" height="53" viewBox="0 0 53 53" fill="none" xmlns="http://www.w3.org/2000/svg">
<circle cx="26.75" cy="26.25" r="26.25" fill="#F8F8F8"/>
<path fill-rule="evenodd" clip-rule="evenodd" d="M20.0829 36.9733C22.5992 36.9733 24.639 34.9334 24.639 32.4171C24.639 29.9008 22.5992 27.861 20.0829 27.861C17.5666 27.861 15.5267 29.9008 15.5267 32.4171C15.5267 34.9334 17.5666 36.9733 20.0829 36.9733ZM20.0829 38C23.1662 38 25.6658 35.5005 25.6658 32.4171C25.6658 29.3338 23.1662 26.8342 20.0829 26.8342C16.9995 26.8342 14.5 29.3338 14.5 32.4171C14.5 35.5005 16.9995 38 20.0829 38Z" fill="url(#paint0_linear_782_1491)"/>
<path d="M23.3556 32.3529C23.3556 34.125 21.9191 35.5615 20.1471 35.5615C18.375 35.5615 16.9385 34.125 16.9385 32.3529C16.9385 30.5809 18.375 29.1444 20.1471 29.1444C21.9191 29.1444 23.3556 30.5809 23.3556 32.3529Z" fill="url(#paint1_linear_782_1491)"/>
<path fill-rule="evenodd" clip-rule="evenodd" d="M32.9171 24.139C35.4334 24.139 37.4733 22.0992 37.4733 19.5829C37.4733 17.0666 35.4334 15.0267 32.9171 15.0267C30.4008 15.0267 28.361 17.0666 28.361 19.5829C28.361 22.0992 30.4008 24.139 32.9171 24.139ZM32.9171 25.1658C36.0005 25.1658 38.5 22.6662 38.5 19.5829C38.5 16.4995 36.0005 14 32.9171 14C29.8338 14 27.3342 16.4995 27.3342 19.5829C27.3342 22.6662 29.8338 25.1658 32.9171 25.1658Z" fill="url(#paint2_linear_782_1491)"/>
<path d="M36.1898 19.5187C36.1898 21.2908 34.7533 22.7273 32.9813 22.7273C31.2092 22.7273 29.7727 21.2908 29.7727 19.5187C29.7727 17.7467 31.2092 16.3102 32.9813 16.3102C34.7533 16.3102 36.1898 17.7467 36.1898 19.5187Z" fill="url(#paint3_linear_782_1491)"/>
<path fill-rule="evenodd" clip-rule="evenodd" d="M32.9171 36.9733C35.4334 36.9733 37.4733 34.9334 37.4733 32.4171C37.4733 29.9008 35.4334 27.861 32.9171 27.861C30.4008 27.861 28.361 29.9008 28.361 32.4171C28.361 34.9334 30.4008 36.9733 32.9171 36.9733ZM32.9171 38C36.0005 38 38.5 35.5005 38.5 32.4171C38.5 29.3338 36.0005 26.8342 32.9171 26.8342C29.8338 26.8342 27.3342 29.3338 27.3342 32.4171C27.3342 35.5005 29.8338 38 32.9171 38Z" fill="url(#paint4_linear_782_1491)"/>
<path d="M36.1387 29.135C37.9537 30.9449 37.9733 33.8679 36.1825 35.6638C34.3917 37.4597 31.4686 37.4483 29.6537 35.6384C32.8962 32.3867 30.9507 34.3378 32.8962 32.3867C34.7768 30.5008 32.8962 32.3867 36.1387 29.135Z" fill="url(#paint5_linear_782_1491)"/>
<path fill-rule="evenodd" clip-rule="evenodd" d="M20.0829 24.139C22.5992 24.139 24.639 22.0992 24.639 19.5829C24.639 17.0666 22.5992 15.0267 20.0829 15.0267C17.5666 15.0267 15.5267 17.0666 15.5267 19.5829C15.5267 22.0992 17.5666 24.139 20.0829 24.139ZM20.0829 25.1658C23.1662 25.1658 25.6658 22.6662 25.6658 19.5829C25.6658 16.4995 23.1662 14 20.0829 14C16.9995 14 14.5 16.4995 14.5 19.5829C14.5 22.6662 16.9995 25.1658 20.0829 25.1658Z" fill="url(#paint6_linear_782_1491)"/>
<path fill-rule="evenodd" clip-rule="evenodd" d="M19.5053 22.3422V16.6952H20.7888V22.3422H19.5053Z" fill="url(#paint7_linear_782_1491)"/>
<defs>
<linearGradient id="paint0_linear_782_1491" x1="26.6213" y1="-0.363636" x2="26.6213" y2="46.1818" gradientUnits="userSpaceOnUse">
<stop stop-color="#F9A766"/>
<stop offset="1" stop-color="#FE7773"/>
</linearGradient>
<linearGradient id="paint1_linear_782_1491" x1="26.6213" y1="-0.363636" x2="26.6213" y2="46.1818" gradientUnits="userSpaceOnUse">
<stop stop-color="#F9A766"/>
<stop offset="1" stop-color="#FE7773"/>
</linearGradient>
<linearGradient id="paint2_linear_782_1491" x1="26.6213" y1="-0.363636" x2="26.6213" y2="46.1818" gradientUnits="userSpaceOnUse">
<stop stop-color="#F9A766"/>
<stop offset="1" stop-color="#FE7773"/>
</linearGradient>
<linearGradient id="paint3_linear_782_1491" x1="26.6213" y1="-0.363636" x2="26.6213" y2="46.1818" gradientUnits="userSpaceOnUse">
<stop stop-color="#F9A766"/>
<stop offset="1" stop-color="#FE7773"/>
</linearGradient>
<linearGradient id="paint4_linear_782_1491" x1="26.6213" y1="-0.363636" x2="26.6213" y2="46.1818" gradientUnits="userSpaceOnUse">
<stop stop-color="#F9A766"/>
<stop offset="1" stop-color="#FE7773"/>
</linearGradient>
<linearGradient id="paint5_linear_782_1491" x1="26.6213" y1="-0.363636" x2="26.6213" y2="46.1818" gradientUnits="userSpaceOnUse">
<stop stop-color="#F9A766"/>
<stop offset="1" stop-color="#FE7773"/>
</linearGradient>
<linearGradient id="paint6_linear_782_1491" x1="26.6213" y1="-0.363636" x2="26.6213" y2="46.1818" gradientUnits="userSpaceOnUse">
<stop stop-color="#F9A766"/>
<stop offset="1" stop-color="#FE7773"/>
</linearGradient>
<linearGradient id="paint7_linear_782_1491" x1="26.6213" y1="-0.363636" x2="26.6213" y2="46.1818" gradientUnits="userSpaceOnUse">
<stop stop-color="#F9A766"/>
<stop offset="1" stop-color="#FE7773"/>
</linearGradient>
</defs>
</svg>
